<svg xmlns="http://www.w3.org/2000/svg" viewBox="0 0 128 128" role="img" aria-labelledby="title desc">
  <title id="title">TransMate 应用图标</title>
  <desc id="desc">白色圆角卡片中的 TransMate 渐变 T 标志。</desc>
  <defs>
    <filter id="card-shadow" x="-12%" y="-12%" width="124%" height="145%" color-interpolation-filters="sRGB">
      <feDropShadow dx="0" dy="4" stdDeviation="4" flood-color="#20283a" flood-opacity="0.10"/>
    </filter>
    <linearGradient id="card-surface" x1="28" y1="8" x2="104" y2="124" gradientUnits="userSpaceOnUse">
      <stop stop-color="#ffffff"/>
      <stop offset="1" stop-color="#fbfbfd"/>
    </linearGradient>
    <linearGradient id="tm-gradient" x1="0" y1="23" x2="244" y2="38" gradientUnits="userSpaceOnUse">
      <stop offset="0" stop-color="#ff933b"/>
      <stop offset="0.082" stop-color="#fe8b3e"/>
      <stop offset="0.164" stop-color="#ff874a"/>
      <stop offset="0.266" stop-color="#fb7a62"/>
      <stop offset="0.389" stop-color="#ef6e85"/>
      <stop offset="0.512" stop-color="#db64a5"/>
      <stop offset="0.635" stop-color="#bd60ca"/>
      <stop offset="0.758" stop-color="#9560e8"/>
      <stop offset="0.881" stop-color="#666bfa"/>
      <stop offset="1" stop-color="#5570fd"/>
    </linearGradient>
    <linearGradient id="tm-ink" x1="120" y1="69" x2="86" y2="227" gradientUnits="userSpaceOnUse">
      <stop stop-color="#2c3448"/>
      <stop offset="0.35" stop-color="#293045"/>
      <stop offset="1" stop-color="#283044"/>
    </linearGradient>
    <linearGradient id="tm-spark" x1="224" y1="140" x2="204" y2="214" gradientUnits="userSpaceOnUse">
      <stop stop-color="#4875ff"/>
      <stop offset="0.18" stop-color="#4e77fc"/>
      <stop offset="0.5" stop-color="#666afa"/>
      <stop offset="0.74" stop-color="#a063e1"/>
      <stop offset="1" stop-color="#fe7c69"/>
    </linearGradient>
  </defs>
  <rect x="4" y="3" width="120" height="120" rx="26" fill="url(#card-surface)" filter="url(#card-shadow)"/>
  <rect x="4.5" y="3.5" width="119" height="119" rx="25.5" fill="none" stroke="#f0f1f5"/>
  <g transform="translate(24.5 27.8) scale(.317)">
    <path fill="url(#tm-ink)" d="M117 69h39l-32 136c-3 14-14 22-32 22H56L90 85c2-10 12-16 27-16Z"/>
    <path fill="url(#tm-gradient)" d="M0 61C.4 27 16.6 0 43 0h200c1 0 2 1.1 1.5 2.5C241.5 35 222 61 192 61h-79c-10 0-18 4.5-24 15l3-15H0Z"/>
    <path fill="url(#tm-spark)" d="M214 140c4 24 14 33 35 36-21 4-31 13-35 38-4-25-14-34-35-38 21-3 31-12 35-36Z"/>
  </g>
</svg>
